<?xml version="1.0" encoding="UTF-8" standalone="no"?>
<svg
   xmlns:dc="http://purl.org/dc/elements/1.1/"
   xmlns:cc="http://creativecommons.org/ns#"
   xmlns:rdf="http://www.w3.org/1999/02/22-rdf-syntax-ns#"
   xmlns:svg="http://www.w3.org/2000/svg"
   xmlns="http://www.w3.org/2000/svg"
   xmlns:sodipodi="http://sodipodi.sourceforge.net/DTD/sodipodi-0.dtd"
   xmlns:inkscape="http://www.inkscape.org/namespaces/inkscape"
   enable-background="new 0 0 64 64"
   height="64px"
   version="1.1"
   viewBox="0 0 64 64"
   width="64px"
   xml:space="preserve"
   id="svg2"
   inkscape:version="0.92.3 (2405546, 2018-03-11)"
   sodipodi:docname="abc-gui-editor.svg"><metadata
   id="metadata80"><rdf:RDF><cc:Work
       rdf:about=""><dc:format>image/svg+xml</dc:format><dc:type
         rdf:resource="http://purl.org/dc/dcmitype/StillImage" /></cc:Work></rdf:RDF></metadata><defs
   id="defs78" /><sodipodi:namedview
   pagecolor="#ffffff"
   bordercolor="#666666"
   borderopacity="1"
   objecttolerance="10"
   gridtolerance="10"
   guidetolerance="10"
   inkscape:pageopacity="0"
   inkscape:pageshadow="2"
   inkscape:window-width="1853"
   inkscape:window-height="1025"
   id="namedview76"
   showgrid="false"
   inkscape:zoom="10.429825"
   inkscape:cx="34.606267"
   inkscape:cy="23.710025"
   inkscape:window-x="67"
   inkscape:window-y="27"
   inkscape:window-maximized="1"
   inkscape:current-layer="svg2" /><g
   id="g11"
   transform="matrix(2.2857143,0,0,1.5238095,-27.428572,-18.285717)"
   style="stroke-width:0;stroke-miterlimit:4;stroke-dasharray:none"><g
     id="g13"
     style="opacity:0.2;stroke-width:0;stroke-miterlimit:4;stroke-dasharray:none"><path
       d="M 28,23 V 14 H 15 c -1.657,0 -3,1.343 -3,3 v 34 c 0,1.657 1.343,3 3,3 h 22 c 1.657,0 3,-1.343 3,-3 V 26 h -9 c -1.657,0 -3,-1.343 -3,-3 z"
       id="path15"
       inkscape:connector-curvature="0"
       style="fill:#000000;fill-opacity:0.99107139;stroke-width:0;stroke-miterlimit:4;stroke-dasharray:none" /></g><g
     id="g17"
     style="stroke-width:0;stroke-miterlimit:4;stroke-dasharray:none"><path
       d="M 37.125841,12 H 28.503364 16.048675 c -1.587493,0 -2.874159,1.343 -2.874159,3 v 25 9 c 0,1.657 1.286666,3 2.874159,3 h 8.622477 12.454689 C 38.713335,52 40,50.657 40,49 V 24 15 c 0,-1.657 -1.286665,-3 -2.874159,-3 z"
       id="path19"
       inkscape:connector-curvature="0"
       style="fill:#e0acd4;fill-opacity:1;stroke-width:0;stroke-miterlimit:4;stroke-dasharray:none" /></g></g><g
   id="Layer_2" /><text
   xml:space="preserve"
   style="font-style:normal;font-weight:normal;line-height:0%;font-family:sans-serif;letter-spacing:0px;word-spacing:0px;fill:#000000;fill-opacity:1;stroke:none;stroke-width:1px;stroke-linecap:butt;stroke-linejoin:miter;stroke-opacity:1"
   x="49.259289"
   y="48.832832"
   id="text4278"
   transform="scale(0.90378202,1.1064615)"><tspan
     sodipodi:role="line"
     x="49.259289"
     y="48.832832"
     style="font-style:normal;font-variant:normal;font-weight:bold;font-stretch:normal;font-size:16.61484909px;line-height:125%;font-family:'Linux Biolinum Keyboard O';-inkscape-font-specification:'Linux Biolinum Keyboard O, Bold';text-align:start;writing-mode:lr-tb;text-anchor:start"
     id="tspan3770">C</tspan></text>

<g
   transform="matrix(1.168194,0,0,-0.98671319,7.3140351,54.236955)"
   inkscape:label="ink_ext_XXXXXX"
   id="g3752"><g
     transform="scale(0.1)"
     id="g3754"><path
       inkscape:connector-curvature="0"
       id="path3756"
       style="fill:#000000;fill-opacity:1;fill-rule:nonzero;stroke:none"
       d="M 42.1094,52.4609 C 39.1406,36.6406 55.6992,3.71094 88.9492,2.62109 129.18,1.32813 154.879,32.1094 142.891,82.3398 L 82.8516,359.449 c -7.1133,32.93 -1.7618,50.86 2.0703,61.492 10.1562,28.469 35.5901,40.188 41.7971,31.09 3.511,-5.152 12.07,-29.531 -12.27,-73.051 C 95.4688,345 7.19141,300.469 0.699219,220.781 -4.92188,151.52 67.6211,100.309 130.23,120.391 171.84,133.75 193.238,196.91 167.5,229.449 99.6094,315.309 -9.30078,183.828 96.2109,147.852 84.7305,156.91 76.9102,163.871 75.4688,172.379 61.2891,255.551 186.328,233.629 152.66,154.691 138.789,122.301 82.8086,115.98 50.9414,144.922 c -26.6797,24.258 -38.5195,70.976 -8.832,104.527 40.2304,45.43 87.7696,86.172 100.3906,148.36 14.922,73.48 -33.828,130.82 -64.6094,58.48 C 67.5391,432.031 63.7109,407.66 73.5898,360.98 L 133.59,78.0117 C 137.891,57.7695 135,29.8789 116.09,17.0313 106.719,10.6992 73.5898,6.32813 65.4688,21.5195" /><path
       inkscape:connector-curvature="0"
       id="path3758"
       style="fill:none;stroke:#000000;stroke-width:0.75770903;stroke-linecap:butt;stroke-linejoin:miter;stroke-miterlimit:4;stroke-dasharray:none;stroke-opacity:1"
       d="M 42.1094,52.4609 C 39.1406,36.6406 55.6992,3.71094 88.9492,2.62109 129.18,1.32813 154.879,32.1094 142.891,82.3398 L 82.8516,359.449 c -7.1133,32.93 -1.7618,50.86 2.0703,61.492 10.1562,28.469 35.5901,40.188 41.7971,31.09 3.511,-5.152 12.07,-29.531 -12.27,-73.051 C 95.4688,345 7.19141,300.469 0.699219,220.781 -4.92188,151.52 67.6211,100.309 130.23,120.391 171.84,133.75 193.238,196.91 167.5,229.449 99.6094,315.309 -9.30078,183.828 96.2109,147.852 84.7305,156.91 76.9102,163.871 75.4688,172.379 61.2891,255.551 186.328,233.629 152.66,154.691 138.789,122.301 82.8086,115.98 50.9414,144.922 c -26.6797,24.258 -38.5195,70.976 -8.832,104.527 40.2304,45.43 87.7696,86.172 100.3906,148.36 14.922,73.48 -33.828,130.82 -64.6094,58.48 C 67.5391,432.031 63.7109,407.66 73.5898,360.98 L 133.59,78.0117 C 137.891,57.7695 135,29.8789 116.09,17.0313 106.719,10.6992 73.5898,6.32813 65.4688,21.5195" /><path
       inkscape:connector-curvature="0"
       id="path3760"
       style="fill:#000000;fill-opacity:1;fill-rule:nonzero;stroke:none"
       d="M 41.6797,50.1211 C 41.9492,65.9805 54.8789,78.6289 70.4688,78.3203 86.0898,78.0508 98.5195,64.9219 98.2383,49.0586 97.9297,33.1992 85.0391,20.5117 69.4102,20.8203 53.7891,21.1289 41.3711,34.2188 41.6797,50.1211 Z" /><path
       inkscape:connector-curvature="0"
       id="path3762"
       style="fill:none;stroke:#000000;stroke-width:0.75770801;stroke-linecap:butt;stroke-linejoin:miter;stroke-miterlimit:4;stroke-dasharray:none;stroke-opacity:1"
       d="M 41.6797,50.1211 C 41.9492,65.9805 54.8789,78.6719 70.4688,78.3594 86.0898,78.0898 98.5195,64.9219 98.2383,49.0195 97.9297,33.1602 85.0391,20.5508 69.4102,20.8594 53.7891,21.1289 41.3711,34.2188 41.6797,50.1211 Z" /></g></g><text
   xml:space="preserve"
   style="font-style:normal;font-weight:normal;line-height:0%;font-family:sans-serif;letter-spacing:0px;word-spacing:0px;fill:#000000;fill-opacity:1;stroke:none;stroke-width:1px;stroke-linecap:butt;stroke-linejoin:miter;stroke-opacity:1"
   x="37.859291"
   y="32.173355"
   id="text4278-2"
   transform="scale(0.90378202,1.1064615)"><tspan
     sodipodi:role="line"
     x="37.859291"
     y="32.173355"
     style="font-style:normal;font-variant:normal;font-weight:bold;font-stretch:normal;font-size:16.61484909px;line-height:125%;font-family:'Linux Biolinum Keyboard O';-inkscape-font-specification:'Linux Biolinum Keyboard O, Bold';text-align:start;writing-mode:lr-tb;text-anchor:start"
     id="tspan3772-9">B</tspan><tspan
     sodipodi:role="line"
     x="37.859291"
     y="40.952709"
     style="font-style:normal;font-variant:normal;font-weight:bold;font-stretch:normal;font-size:16.61484909px;line-height:125%;font-family:'Linux Biolinum Keyboard O';-inkscape-font-specification:'Linux Biolinum Keyboard O, Bold';text-align:start;writing-mode:lr-tb;text-anchor:start"
     id="tspan3770-6" /></text>
<text
   xml:space="preserve"
   style="font-style:normal;font-weight:normal;line-height:0%;font-family:sans-serif;letter-spacing:0px;word-spacing:0px;fill:#000000;fill-opacity:1;stroke:none;stroke-width:1px;stroke-linecap:butt;stroke-linejoin:miter;stroke-opacity:1"
   x="26.563204"
   y="15.95514"
   id="text4278-0"
   transform="scale(0.90378202,1.1064615)"><tspan
     sodipodi:role="line"
     x="26.563204"
     y="15.95514"
     style="font-style:normal;font-variant:normal;font-weight:bold;font-stretch:normal;font-size:16.61484909px;line-height:125%;font-family:'Linux Biolinum Keyboard O';-inkscape-font-specification:'Linux Biolinum Keyboard O, Bold';text-align:start;writing-mode:lr-tb;text-anchor:start"
     id="tspan3770-1">A</tspan></text>
</svg>